<svg data-v-0dd9719b="" version="1.0" xmlns="http://www.w3.org/2000/svg" xmlns:xlink="http://www.w3.org/1999/xlink" width="100%" height="100%" viewBox="0 0 340.000000 250.000000" preserveAspectRatio="xMidYMid meet" color-interpolation-filters="sRGB" style="margin: auto;"> <rect data-v-0dd9719b="" x="0" y="0" width="100%" height="100%" fill="#feffff" fill-opacity="0" class="background"></rect> <rect data-v-0dd9719b="" x="0" y="0" width="100%" height="100%" fill="url(#watermark)" fill-opacity="1" class="watermarklayer"></rect> <g data-v-0dd9719b="" fill="#333" class="iconlinesvg-g iconlinesvg" transform="translate(86.71188426017761,102.87487602233887)"><g class="tp-name" opacity="1" transform="matrix(1,0,0,1,0,0)"><g transform="translate(0, 0)"><g data-gra="path-name" fill="#333" transform="scale(1)"><path d="M12.32-25.02L12.32-21.47L8.22-21.47L8.22-5.23Q8.22-3.17 10.64-3.17L10.64-3.17L12.32-3.17L12.32 0Q11.20 0 9.71 0L9.71 0Q9.34 0 9.15 0L9.15 0Q3.73 0 3.92-4.85L3.92-4.85L3.92-21.47L0.75-21.47L0.75-25.02L3.92-25.02L3.92-31.93L8.22-31.93L8.22-25.02L12.32-25.02Z" transform="translate(-0.7468879668049793, 34.170124481327804)"></path></g></g><g transform="translate(15, 6.611176863899667)"><g><g class="imagesvg"><g><rect fill="#333" fill-opacity="0" stroke-width="2" x="0" y="0" width="31.34106588844965" height="31.03075830539569" class="image-rect"></rect> <svg filter="url(#colors5162791570)" x="0" y="0" width="31.34106588844965" height="31.03075830539569" filtersec="colorsf5048411572" class="image-svg-svg primary" style="overflow: visible;"><svg xmlns="http://www.w3.org/2000/svg" viewBox="1.5199999809265137 0.6859999895095825 96.95999908447266 96"><path fill="#333333" d="M54.32.686l-13.918 39.84L62 96.686h36.48zM1.52 96.685h49.922L25.52 28.527z"></path></svg></svg> <defs><filter id="colors5162791570"><feColorMatrix type="matrix" values="0 0 0 0 0.19921875  0 0 0 0 0.19921875  0 0 0 0 0.19921875  0 0 0 1 0" class="icon-fecolormatrix"></feColorMatrix></filter> <filter id="colorsf5048411572"><feColorMatrix type="matrix" values="0 0 0 0 0.99609375  0 0 0 0 0.99609375  0 0 0 0 0.99609375  0 0 0 1 0" class="icon-fecolormatrix"></feColorMatrix></filter> <filter id="colorsb6954459804"><feColorMatrix type="matrix" values="0 0 0 0 0  0 0 0 0 0  0 0 0 0 0  0 0 0 1 0" class="icon-fecolormatrix"></feColorMatrix></filter></defs></g></g></g></g><g transform="translate(50, 0)"><g data-gra="path-name" fill="#333" transform="scale(1)"><path d="M23.34-25.02L13.82-15.68L23.90 0L18.49 0L10.64-12.70L7.28-9.34L7.28 0L3.17 0L3.17-34.17L7.28-34.17L7.28-14.38L18.11-25.02L23.34-25.02Z" transform="translate(-3.174273858921162, 34.170124481327804)"></path></g></g><g transform="translate(74, 0)"><g data-gra="path-name" fill="#333" transform="scale(1)"><path d="M23.34-16.99L23.34-16.99L23.34 0L19.23 0L19.23-15.31Q19.61-22.22 13.82-21.85L13.82-21.85Q7.47-21.47 7.28-13.63L7.28-13.63L7.28 0L2.99 0L2.99-25.02L7.10-25.02L7.10-21.47Q10.08-25.77 14.75-25.77L14.75-25.77Q23.15-25.58 23.34-16.99Z" transform="translate(-2.987551867219917, 34.170124481327804)"></path></g></g><g transform="translate(98, 0)"><g data-gra="path-name" fill="#333" transform="scale(1)"><path d="M3.17-25.02L7.47-25.02L7.47 0L3.17 0L3.17-25.02ZM7.47-34.17L7.47-29.50L3.17-29.50L3.17-34.17L7.47-34.17Z" transform="translate(-3.174273858921162, 34.170124481327804)"></path></g></g><g transform="translate(106, 0)"><g data-gra="path-name" fill="#333" transform="scale(1)"><path d="M6.35-12.51L6.35-12.51Q6.54-2.99 13.07-2.80L13.07-2.80Q19.61-3.36 19.79-11.20L19.79-11.20Q19.98-21.85 13.07-21.85L13.07-21.85Q6.16-21.85 6.35-12.51ZM19.79-25.02L23.71-25.02L23.71-2.05Q24.09 10.08 12.32 10.08L12.32 10.08Q3.55 10.08 2.61 2.61L2.61 2.61L6.91 2.61Q7.66 6.72 12.51 6.72L12.51 6.72Q19.98 6.72 19.61-1.68L19.61-1.68L19.61-2.80L19.61-2.61Q17.37 0.37 12.88 0.37L12.88 0.37Q2.43 0 1.87-13.26L1.87-13.26Q2.43-25.21 12.32-25.77L12.32-25.77Q16.99-25.77 19.79-21.47L19.79-21.47L19.79-25.02Z" transform="translate(-1.8672199170124482, 34.170124481327804)"></path></g></g><g transform="translate(131, 0)"><g data-gra="path-name" fill="#333" transform="scale(1)"><path d="M23.34-16.99L23.34-16.99L23.34 0L19.23 0L19.23-16.24Q19.42-22.03 14.19-21.85L14.19-21.85Q7.47-21.66 7.28-13.63L7.28-13.63L7.28 0L2.99 0L2.99-34.17L7.28-34.17L7.28-21.66L7.47-21.66Q10.46-25.77 14.75-25.77L14.75-25.77Q23.15-25.58 23.34-16.99Z" transform="translate(-2.987551867219917, 34.170124481327804)"></path></g></g><g transform="translate(155, 0)"><g data-gra="path-name" fill="#333" transform="scale(1)"><path d="M12.32-25.02L12.32-21.47L8.22-21.47L8.22-5.23Q8.22-3.17 10.64-3.17L10.64-3.17L12.32-3.17L12.32 0Q11.20 0 9.71 0L9.71 0Q9.34 0 9.15 0L9.15 0Q3.73 0 3.92-4.85L3.92-4.85L3.92-21.47L0.75-21.47L0.75-25.02L3.92-25.02L3.92-31.93L8.22-31.93L8.22-25.02L12.32-25.02Z" transform="translate(-0.7468879668049793, 34.170124481327804)"></path></g></g></g> <!----></g><defs v-gra="od"></defs></svg>